<svg xmlns="http://www.w3.org/2000/svg" xmlns:xlink="http://www.w3.org/1999/xlink" width="1000" zoomAndPan="magnify" viewBox="0 0 750 299.999988" height="400" preserveAspectRatio="xMidYMid meet" version="1.0"><defs><g/><clipPath id="a83e817dd3"><path d="M 34 50 L 309 50 L 309 292 L 34 292 Z M 34 50 " clip-rule="nonzero"/></clipPath><clipPath id="a8055714ef"><path d="M -43.785156 168.351562 L 242.949219 -19.898438 L 372.980469 178.15625 L 86.246094 366.40625 Z M -43.785156 168.351562 " clip-rule="nonzero"/></clipPath><clipPath id="6e09132140"><path d="M -43.785156 168.351562 L 242.949219 -19.898438 L 372.980469 178.15625 L 86.246094 366.40625 Z M -43.785156 168.351562 " clip-rule="nonzero"/></clipPath><clipPath id="31d94b2c5d"><path d="M 66 92 L 131 92 L 131 209 L 66 209 Z M 66 92 " clip-rule="nonzero"/></clipPath><clipPath id="461d41d340"><path d="M -43.785156 168.351562 L 242.949219 -19.898438 L 372.980469 178.15625 L 86.246094 366.40625 Z M -43.785156 168.351562 " clip-rule="nonzero"/></clipPath><clipPath id="2d026dd95b"><path d="M -43.785156 168.351562 L 242.949219 -19.898438 L 372.980469 178.15625 L 86.246094 366.40625 Z M -43.785156 168.351562 " clip-rule="nonzero"/></clipPath><clipPath id="932b0f4556"><path d="M 41 62 L 106 62 L 106 178 L 41 178 Z M 41 62 " clip-rule="nonzero"/></clipPath><clipPath id="9a679ca330"><path d="M -69.011719 132.464844 L 218.640625 -54.375 L 343.84375 138.382812 L 56.191406 325.222656 Z M -69.011719 132.464844 " clip-rule="nonzero"/></clipPath><clipPath id="170fcc25c6"><path d="M -69.011719 132.464844 L 218.640625 -54.375 L 343.84375 138.382812 L 56.191406 325.222656 Z M -69.011719 132.464844 " clip-rule="nonzero"/></clipPath><clipPath id="0d94369c01"><path d="M 4 15 L 289 15 L 289 266 L 4 266 Z M 4 15 " clip-rule="nonzero"/></clipPath><clipPath id="caea3f7b92"><path d="M -69.011719 132.464844 L 218.640625 -54.375 L 343.84375 138.382812 L 56.191406 325.222656 Z M -69.011719 132.464844 " clip-rule="nonzero"/></clipPath><clipPath id="f01876ac0e"><path d="M -69.011719 132.464844 L 218.640625 -54.375 L 343.84375 138.382812 L 56.191406 325.222656 Z M -69.011719 132.464844 " clip-rule="nonzero"/></clipPath><clipPath id="2ee607ad80"><path d="M 45 66 L 109 66 L 109 181 L 45 181 Z M 45 66 " clip-rule="nonzero"/></clipPath><clipPath id="11d24b33fc"><path d="M -65.476562 136.003906 L 222.179688 -50.839844 L 347.382812 141.917969 L 59.726562 328.761719 Z M -65.476562 136.003906 " clip-rule="nonzero"/></clipPath><clipPath id="bcdc26edfc"><path d="M -65.476562 136.003906 L 222.179688 -50.839844 L 347.382812 141.917969 L 59.726562 328.761719 Z M -65.476562 136.003906 " clip-rule="nonzero"/></clipPath><clipPath id="b0259d3631"><path d="M 7 18 L 292 18 L 292 269 L 7 269 Z M 7 18 " clip-rule="nonzero"/></clipPath><clipPath id="1f0c5165e3"><path d="M -65.476562 136.003906 L 222.179688 -50.839844 L 347.382812 141.917969 L 59.726562 328.761719 Z M -65.476562 136.003906 " clip-rule="nonzero"/></clipPath><clipPath id="cb738b94fd"><path d="M -65.476562 136.003906 L 222.179688 -50.839844 L 347.382812 141.917969 L 59.726562 328.761719 Z M -65.476562 136.003906 " clip-rule="nonzero"/></clipPath></defs><g clip-path="url(#a83e817dd3)"><g clip-path="url(#a8055714ef)"><g clip-path="url(#6e09132140)"><path fill="#abe84e" d="M 91.15625 282.398438 C 104.722656 282.460938 121.878906 289.886719 146.027344 282.382812 C 170.171875 274.875 234.996094 270.242188 272.613281 205.546875 C 306.550781 147.175781 277.925781 124.074219 300.472656 112.425781 C 321.875 101.371094 293.996094 55.40625 271.503906 68.304688 C 259.984375 74.914062 243.847656 65.035156 218.269531 55.1875 C 188.621094 43.78125 131.039062 53.542969 93.539062 81 C 56.046875 108.46875 33.792969 178.859375 44.117188 213.75 C 52.480469 242.015625 43.832031 252.773438 37.460938 256.789062 C 29.035156 262.109375 41.476562 297.851562 64.097656 290.421875 C 73.734375 287.261719 75.214844 282.324219 91.15625 282.398438 Z M 91.15625 282.398438 " fill-opacity="1" fill-rule="nonzero"/></g></g></g><g clip-path="url(#31d94b2c5d)"><g clip-path="url(#461d41d340)"><g clip-path="url(#2d026dd95b)"><path fill="#ffffff" d="M 74.738281 207.621094 C 73.945312 208.144531 73.007812 208.457031 71.988281 208.492188 C 69.050781 208.582031 66.601562 206.269531 66.511719 203.339844 C 65.074219 155.992188 83.683594 119.148438 121.820312 93.828125 C 124.246094 92.179688 127.570312 92.871094 129.191406 95.320312 C 130.816406 97.765625 130.152344 101.066406 127.703125 102.6875 C 110.226562 114.289062 97.128906 128.574219 88.769531 145.144531 C 80.390625 161.75 76.480469 181.222656 77.140625 203.019531 C 77.199219 204.925781 76.234375 206.640625 74.738281 207.621094 Z M 74.738281 207.621094 " fill-opacity="1" fill-rule="nonzero"/></g></g></g><g clip-path="url(#932b0f4556)"><g clip-path="url(#9a679ca330)"><g clip-path="url(#170fcc25c6)"><path fill="#141414" d="M 97.183594 63.402344 C 59.066406 88.4375 40.351562 125.054688 41.550781 172.226562 C 41.628906 175.152344 44.058594 177.460938 46.980469 177.386719 C 47.996094 177.359375 48.929688 177.050781 49.726562 176.535156 C 51.21875 175.5625 52.1875 173.859375 52.140625 171.949219 C 51.589844 150.234375 55.582031 130.855469 64.007812 114.351562 C 72.417969 97.882812 85.535156 83.71875 103 72.25 C 105.449219 70.644531 106.125 67.359375 104.523438 64.914062 C 102.910156 62.480469 99.601562 61.777344 97.183594 63.402344 Z M 97.183594 63.402344 " fill-opacity="1" fill-rule="nonzero"/></g></g></g><g clip-path="url(#0d94369c01)"><g clip-path="url(#caea3f7b92)"><g clip-path="url(#f01876ac0e)"><path fill="#141414" d="M 268.082031 35.246094 C 259.898438 30.277344 251.277344 29.867188 243.800781 34.109375 C 237.039062 37.941406 225.972656 33.253906 210.660156 26.753906 C 206.089844 24.8125 200.90625 22.621094 195.371094 20.453125 C 180.019531 14.453125 157.382812 13.652344 133.273438 18.234375 C 108.171875 23.003906 84.269531 32.941406 65.957031 46.210938 C 47.796875 59.371094 31.519531 83.292969 21.285156 111.84375 C 11.550781 139.007812 8.867188 165.96875 14.09375 183.96875 C 19.445312 202.382812 17.898438 215.414062 9.753906 220.703125 C 9.679688 220.75 9.609375 220.796875 9.542969 220.839844 C 9.492188 220.875 9.441406 220.90625 9.390625 220.9375 C 2.285156 225.554688 3.628906 237.519531 7.914062 246.742188 C 14.722656 261.394531 27.457031 268.171875 40.351562 264.011719 C 43.910156 262.863281 46.492188 261.5 48.769531 260.289062 C 52.964844 258.070312 56.285156 256.316406 65.660156 256.40625 C 69.300781 256.445312 73.332031 257.085938 78.007812 257.828125 C 89.515625 259.664062 103.839844 261.949219 121.917969 256.429688 C 125.496094 255.335938 130.140625 254.285156 135.53125 253.066406 C 150.558594 249.667969 171.148438 245.011719 192.175781 234.199219 C 196.726562 231.859375 201.109375 229.320312 205.324219 226.582031 C 224.226562 214.308594 239.691406 198.054688 251.414062 178.117188 C 271.039062 144.75 270.746094 122.128906 270.550781 107.160156 C 270.398438 95 270.671875 90.984375 277.46875 87.519531 C 284 84.183594 287.75 78.042969 288.039062 70.222656 C 288.507812 57.695312 279.742188 42.328125 268.082031 35.246094 Z M 277.460938 69.847656 C 277.3125 73.828125 275.742188 76.523438 272.652344 78.101562 C 259.671875 84.722656 259.804688 95.195312 259.960938 107.3125 C 260.152344 121.929688 260.410156 141.941406 242.285156 172.765625 C 230.167969 193.371094 215.203125 207.574219 199.722656 217.628906 C 175.945312 233.074219 150.941406 238.734375 133.195312 242.746094 C 127.605469 244.011719 122.773438 245.105469 118.828125 246.308594 C 103.09375 251.113281 90.652344 249.132812 79.675781 247.382812 C 74.796875 246.605469 70.1875 245.871094 65.757812 245.828125 C 53.699219 245.710938 48.667969 248.371094 43.808594 250.941406 C 41.734375 252.039062 39.769531 253.074219 37.097656 253.941406 C 29.296875 256.460938 23.800781 251.789062 20.558594 247.417969 C 15.132812 240.105469 14.289062 231.605469 15.355469 229.71875 C 19.085938 227.320312 23.914062 222.804688 26.320312 214.488281 C 28.867188 205.707031 28.179688 194.453125 24.277344 181.03125 C 19.71875 165.328125 22.394531 140.195312 31.273438 115.429688 C 40.804688 88.835938 55.714844 66.734375 72.1875 54.792969 C 109.734375 27.578125 165.222656 20.054688 191.53125 30.328125 C 196.925781 32.4375 201.808594 34.507812 206.535156 36.515625 C 224.648438 44.195312 237.726562 49.746094 249.039062 43.328125 C 253.136719 41.007812 257.703125 41.335938 262.59375 44.308594 C 270.972656 49.394531 277.785156 61.09375 277.460938 69.847656 Z M 277.460938 69.847656 " fill-opacity="1" fill-rule="nonzero"/></g></g></g><g clip-path="url(#2ee607ad80)"><g clip-path="url(#11d24b33fc)"><g clip-path="url(#bcdc26edfc)"><path fill="#141414" d="M 100.722656 66.9375 C 62.601562 91.972656 43.886719 128.589844 45.085938 175.761719 C 45.164062 178.691406 47.59375 180.996094 50.515625 180.921875 C 51.53125 180.894531 52.46875 180.585938 53.261719 180.070312 C 54.753906 179.101562 55.726562 177.398438 55.675781 175.484375 C 55.125 153.769531 59.117188 134.390625 67.542969 117.886719 C 75.953125 101.421875 89.070312 87.253906 106.539062 75.785156 C 108.984375 74.179688 109.664062 70.894531 108.058594 68.449219 C 106.445312 66.015625 103.140625 65.3125 100.722656 66.9375 Z M 100.722656 66.9375 " fill-opacity="1" fill-rule="nonzero"/></g></g></g><g clip-path="url(#b0259d3631)"><g clip-path="url(#1f0c5165e3)"><g clip-path="url(#cb738b94fd)"><path fill="#141414" d="M 271.621094 38.78125 C 263.433594 33.8125 254.816406 33.402344 247.335938 37.644531 C 240.574219 41.476562 229.507812 36.789062 214.195312 30.292969 C 209.625 28.347656 204.445312 26.15625 198.90625 23.988281 C 183.554688 17.992188 160.917969 17.1875 136.808594 21.769531 C 111.707031 26.542969 87.804688 36.476562 69.492188 49.746094 C 51.332031 62.90625 35.054688 86.828125 24.820312 115.378906 C 15.085938 142.542969 12.402344 169.503906 17.628906 187.503906 C 22.980469 205.917969 21.433594 218.949219 13.289062 224.238281 C 13.214844 224.285156 13.144531 224.332031 13.078125 224.378906 C 13.027344 224.410156 12.976562 224.441406 12.929688 224.472656 C 5.820312 229.089844 7.164062 241.054688 11.453125 250.277344 C 18.261719 264.929688 30.992188 271.707031 43.890625 267.546875 C 47.445312 266.398438 50.027344 265.035156 52.304688 263.824219 C 56.5 261.605469 59.820312 259.851562 69.195312 259.945312 C 72.835938 259.980469 76.867188 260.621094 81.542969 261.367188 C 93.054688 263.199219 107.375 265.484375 125.453125 259.964844 C 129.03125 258.871094 133.675781 257.820312 139.066406 256.601562 C 154.09375 253.203125 174.683594 248.546875 195.714844 237.738281 C 200.265625 235.394531 204.648438 232.855469 208.859375 230.121094 C 227.761719 217.84375 243.226562 201.59375 254.949219 181.65625 C 274.574219 148.285156 274.28125 125.667969 274.089844 110.699219 C 273.933594 98.535156 274.207031 94.523438 281.003906 91.054688 C 287.539062 87.71875 291.289062 81.582031 291.574219 73.757812 C 292.042969 61.234375 283.277344 45.863281 271.621094 38.78125 Z M 280.996094 73.382812 C 280.851562 77.363281 279.277344 80.058594 276.1875 81.636719 C 263.210938 88.261719 263.339844 98.730469 263.496094 110.851562 C 263.691406 125.464844 263.945312 145.476562 245.820312 176.300781 C 233.703125 196.90625 218.738281 211.113281 203.257812 221.167969 C 179.484375 236.609375 154.480469 242.273438 136.730469 246.285156 C 131.140625 247.546875 126.308594 248.640625 122.363281 249.84375 C 106.628906 254.648438 94.1875 252.671875 83.214844 250.917969 C 78.335938 250.140625 73.722656 249.410156 69.296875 249.363281 C 57.234375 249.246094 52.203125 251.90625 47.347656 254.476562 C 45.269531 255.574219 43.308594 256.613281 40.632812 257.480469 C 32.835938 259.996094 27.335938 255.324219 24.097656 250.957031 C 18.667969 243.640625 17.828125 235.140625 18.890625 233.257812 C 22.625 230.855469 27.449219 226.339844 29.859375 218.023438 C 32.402344 209.242188 31.71875 197.988281 27.816406 184.566406 C 23.253906 168.867188 25.933594 143.734375 34.808594 118.964844 C 44.339844 92.375 59.25 70.269531 75.722656 58.328125 C 113.269531 31.113281 168.757812 23.589844 195.066406 33.867188 C 200.460938 35.976562 205.34375 38.046875 210.074219 40.050781 C 228.183594 47.730469 241.261719 53.28125 252.578125 46.863281 C 256.675781 44.542969 261.238281 44.871094 266.128906 47.84375 C 274.511719 52.933594 281.320312 64.628906 280.996094 73.382812 Z M 280.996094 73.382812 " fill-opacity="1" fill-rule="nonzero"/></g></g></g><g fill="#141414" fill-opacity="1"><g transform="translate(320.961639, 141.007801)"><g><path d="M 14.1875 -22.703125 L 47.09375 -22.703125 L 47.09375 -109.703125 L 15.328125 -109.703125 L 15.328125 -132.390625 L 70.921875 -132.390625 L 70.921875 -22.703125 L 101.5625 -22.703125 L 101.5625 0 L 14.1875 0 Z M 14.1875 -22.703125 "/></g></g></g><g fill="#141414" fill-opacity="1"><g transform="translate(427.254093, 141.007801)"><g><path d="M 16.453125 -22.703125 L 48.234375 -22.703125 L 48.234375 -71.109375 L 18.71875 -71.109375 L 18.71875 -93.8125 L 72.0625 -93.8125 L 72.0625 -22.703125 L 99.296875 -22.703125 L 99.296875 0 L 16.453125 0 Z M 77.921875 -121.625 C 77.921875 -119.09375 77.445312 -116.722656 76.5 -114.515625 C 75.5625 -112.316406 74.269531 -110.425781 72.625 -108.84375 C 70.988281 -107.269531 69.066406 -106.007812 66.859375 -105.0625 C 64.648438 -104.125 62.347656 -103.65625 59.953125 -103.65625 C 57.429688 -103.65625 55.097656 -104.125 52.953125 -105.0625 C 50.816406 -106.007812 48.925781 -107.269531 47.28125 -108.84375 C 45.644531 -110.425781 44.351562 -112.316406 43.40625 -114.515625 C 42.457031 -116.722656 41.984375 -119.09375 41.984375 -121.625 C 41.984375 -124.144531 42.457031 -126.503906 43.40625 -128.703125 C 44.351562 -130.910156 45.644531 -132.800781 47.28125 -134.375 C 48.925781 -135.957031 50.816406 -137.21875 52.953125 -138.15625 C 55.097656 -139.101562 57.429688 -139.578125 59.953125 -139.578125 C 62.347656 -139.578125 64.648438 -139.101562 66.859375 -138.15625 C 69.066406 -137.21875 70.988281 -135.957031 72.625 -134.375 C 74.269531 -132.800781 75.5625 -130.910156 76.5 -128.703125 C 77.445312 -126.503906 77.921875 -124.144531 77.921875 -121.625 Z M 77.921875 -121.625 "/></g></g></g><g fill="#141414" fill-opacity="1"><g transform="translate(533.546547, 141.007801)"><g><path d="M 108.9375 0 L 85.109375 0 L 85.109375 -65.828125 C 85.109375 -68.472656 84.445312 -70.457031 83.125 -71.78125 C 81.800781 -73.101562 80.066406 -73.765625 77.921875 -73.765625 C 75.398438 -73.765625 73.414062 -73.003906 71.96875 -71.484375 C 70.519531 -69.972656 69.796875 -67.707031 69.796875 -64.6875 L 69.796875 0 L 45.96875 0 L 45.96875 -65.828125 C 45.96875 -68.472656 45.238281 -70.457031 43.78125 -71.78125 C 42.332031 -73.101562 40.597656 -73.765625 38.578125 -73.765625 C 36.316406 -73.765625 34.425781 -73.003906 32.90625 -71.484375 C 31.394531 -69.972656 30.640625 -67.707031 30.640625 -64.6875 L 30.640625 0 L 6.8125 0 L 6.8125 -93.8125 L 30.640625 -93.8125 L 30.640625 -84.734375 L 34.046875 -84.734375 C 34.804688 -88.140625 36.539062 -90.945312 39.25 -93.15625 C 41.957031 -95.363281 45.519531 -96.46875 49.9375 -96.46875 C 54.09375 -96.46875 57.617188 -95.363281 60.515625 -93.15625 C 63.421875 -90.945312 65.378906 -88.140625 66.390625 -84.734375 L 69.796875 -84.734375 C 70.804688 -88.140625 72.914062 -90.945312 76.125 -93.15625 C 79.34375 -95.363281 83.347656 -96.46875 88.140625 -96.46875 C 94.441406 -96.46875 99.484375 -94.351562 103.265625 -90.125 C 107.046875 -85.90625 108.9375 -80.070312 108.9375 -72.625 Z M 108.9375 0 "/></g></g></g><g fill="#141414" fill-opacity="1"><g transform="translate(639.839002, 141.007801)"><g><path d="M 35.75 -39.15625 C 35.875 -36.375 36.535156 -33.816406 37.734375 -31.484375 C 38.929688 -29.160156 40.566406 -27.144531 42.640625 -25.4375 C 44.722656 -23.738281 47.117188 -22.414062 49.828125 -21.46875 C 52.546875 -20.519531 55.414062 -20.046875 58.4375 -20.046875 C 64.363281 -20.046875 68.90625 -21.085938 72.0625 -23.171875 C 75.21875 -25.253906 77.488281 -27.742188 78.875 -30.640625 L 99.296875 -19.296875 C 98.160156 -16.898438 96.582031 -14.40625 94.5625 -11.8125 C 92.550781 -9.226562 89.9375 -6.863281 86.71875 -4.71875 C 83.5 -2.582031 79.585938 -0.820312 74.984375 0.5625 C 70.390625 1.945312 65.003906 2.640625 58.828125 2.640625 C 51.765625 2.640625 45.332031 1.507812 39.53125 -0.75 C 33.726562 -3.019531 28.710938 -6.296875 24.484375 -10.578125 C 20.265625 -14.867188 16.988281 -20.101562 14.65625 -26.28125 C 12.320312 -32.46875 11.15625 -39.46875 11.15625 -47.28125 L 11.15625 -48.421875 C 11.15625 -55.609375 12.382812 -62.164062 14.84375 -68.09375 C 17.300781 -74.019531 20.671875 -79.0625 24.953125 -83.21875 C 29.242188 -87.382812 34.257812 -90.632812 40 -92.96875 C 45.738281 -95.300781 51.882812 -96.46875 58.4375 -96.46875 C 66.507812 -96.46875 73.445312 -95.046875 79.25 -92.203125 C 85.050781 -89.367188 89.84375 -85.773438 93.625 -81.421875 C 97.40625 -77.078125 100.175781 -72.285156 101.9375 -67.046875 C 103.707031 -61.816406 104.59375 -56.742188 104.59375 -51.828125 L 104.59375 -39.15625 Z M 58.25 -74.90625 C 52.195312 -74.90625 47.28125 -73.359375 43.5 -70.265625 C 39.71875 -67.171875 37.257812 -63.609375 36.125 -59.578125 L 80.390625 -59.578125 C 79.628906 -63.992188 77.257812 -67.648438 73.28125 -70.546875 C 69.3125 -73.453125 64.300781 -74.90625 58.25 -74.90625 Z M 58.25 -74.90625 "/></g></g></g><g fill="#141414" fill-opacity="1"><g transform="translate(320.961639, 295.510929)"><g><path d="M 11.109375 -74.453125 L 32.28125 -74.453125 L 32.28125 -89.765625 C 32.28125 -94.066406 33.726562 -97.691406 36.625 -100.640625 C 39.53125 -103.597656 43.132812 -105.078125 47.4375 -105.078125 L 77.75 -105.078125 L 77.75 -87.0625 L 55.234375 -87.0625 C 52.535156 -87.0625 51.1875 -85.5625 51.1875 -82.5625 L 51.1875 -74.453125 L 80.453125 -74.453125 L 80.453125 -56.4375 L 51.1875 -56.4375 L 51.1875 0 L 32.28125 0 L 32.28125 -56.4375 L 11.109375 -56.4375 Z M 11.109375 -74.453125 "/></g></g></g><g fill="#141414" fill-opacity="1"><g transform="translate(405.323906, 295.510929)"><g><path d="M 84.65625 -36.328125 C 84.65625 -30.117188 83.601562 -24.640625 81.5 -19.890625 C 79.40625 -15.140625 76.554688 -11.132812 72.953125 -7.875 C 69.347656 -4.625 65.21875 -2.148438 60.5625 -0.453125 C 55.914062 1.242188 51.039062 2.09375 45.9375 2.09375 C 40.832031 2.09375 35.953125 1.242188 31.296875 -0.453125 C 26.640625 -2.148438 22.507812 -4.625 18.90625 -7.875 C 15.3125 -11.132812 12.460938 -15.140625 10.359375 -19.890625 C 8.253906 -24.640625 7.203125 -30.117188 7.203125 -36.328125 L 7.203125 -38.125 C 7.203125 -44.226562 8.253906 -49.65625 10.359375 -54.40625 C 12.460938 -59.164062 15.3125 -63.195312 18.90625 -66.5 C 22.507812 -69.800781 26.640625 -72.300781 31.296875 -74 C 35.953125 -75.707031 40.832031 -76.5625 45.9375 -76.5625 C 51.039062 -76.5625 55.914062 -75.707031 60.5625 -74 C 65.21875 -72.300781 69.347656 -69.800781 72.953125 -66.5 C 76.554688 -63.195312 79.40625 -59.164062 81.5 -54.40625 C 83.601562 -49.65625 84.65625 -44.226562 84.65625 -38.125 Z M 45.9375 -15.90625 C 48.632812 -15.90625 51.179688 -16.351562 53.578125 -17.25 C 55.984375 -18.15625 58.085938 -19.457031 59.890625 -21.15625 C 61.691406 -22.863281 63.117188 -24.941406 64.171875 -27.390625 C 65.222656 -29.847656 65.75 -32.625 65.75 -35.71875 L 65.75 -38.734375 C 65.75 -41.828125 65.222656 -44.597656 64.171875 -47.046875 C 63.117188 -49.503906 61.691406 -51.582031 59.890625 -53.28125 C 58.085938 -54.988281 55.984375 -56.289062 53.578125 -57.1875 C 51.179688 -58.09375 48.632812 -58.546875 45.9375 -58.546875 C 43.226562 -58.546875 40.671875 -58.09375 38.265625 -57.1875 C 35.867188 -56.289062 33.769531 -54.988281 31.96875 -53.28125 C 30.164062 -51.582031 28.738281 -49.503906 27.6875 -47.046875 C 26.644531 -44.597656 26.125 -41.828125 26.125 -38.734375 L 26.125 -35.71875 C 26.125 -32.625 26.644531 -29.847656 27.6875 -27.390625 C 28.738281 -24.941406 30.164062 -22.863281 31.96875 -21.15625 C 33.769531 -19.457031 35.867188 -18.15625 38.265625 -17.25 C 40.671875 -16.351562 43.226562 -15.90625 45.9375 -15.90625 Z M 45.9375 -15.90625 "/></g></g></g><g fill="#141414" fill-opacity="1"><g transform="translate(489.686174, 295.510929)"><g><path d="M 11.265625 -18.015625 L 37.375 -18.015625 L 37.375 -87.0625 L 12.15625 -87.0625 L 12.15625 -105.078125 L 56.296875 -105.078125 L 56.296875 -18.015625 L 80.609375 -18.015625 L 80.609375 0 L 11.265625 0 Z M 11.265625 -18.015625 "/></g></g></g><g fill="#141414" fill-opacity="1"><g transform="translate(574.048441, 295.510929)"><g><path d="M 13.0625 -18.015625 L 38.28125 -18.015625 L 38.28125 -56.4375 L 14.859375 -56.4375 L 14.859375 -74.453125 L 57.1875 -74.453125 L 57.1875 -18.015625 L 78.8125 -18.015625 L 78.8125 0 L 13.0625 0 Z M 61.84375 -96.515625 C 61.84375 -94.515625 61.46875 -92.640625 60.71875 -90.890625 C 59.96875 -89.140625 58.941406 -87.640625 57.640625 -86.390625 C 56.335938 -85.140625 54.8125 -84.140625 53.0625 -83.390625 C 51.3125 -82.640625 49.484375 -82.265625 47.578125 -82.265625 C 45.578125 -82.265625 43.726562 -82.640625 42.03125 -83.390625 C 40.332031 -84.140625 38.832031 -85.140625 37.53125 -86.390625 C 36.226562 -87.640625 35.203125 -89.140625 34.453125 -90.890625 C 33.703125 -92.640625 33.328125 -94.515625 33.328125 -96.515625 C 33.328125 -98.515625 33.703125 -100.390625 34.453125 -102.140625 C 35.203125 -103.898438 36.226562 -105.40625 37.53125 -106.65625 C 38.832031 -107.90625 40.332031 -108.90625 42.03125 -109.65625 C 43.726562 -110.40625 45.578125 -110.78125 47.578125 -110.78125 C 49.484375 -110.78125 51.3125 -110.40625 53.0625 -109.65625 C 54.8125 -108.90625 56.335938 -107.90625 57.640625 -106.65625 C 58.941406 -105.40625 59.96875 -103.898438 60.71875 -102.140625 C 61.46875 -100.390625 61.84375 -98.515625 61.84375 -96.515625 Z M 61.84375 -96.515625 "/></g></g></g><g fill="#141414" fill-opacity="1"><g transform="translate(658.410708, 295.510929)"><g><path d="M 84.65625 -36.328125 C 84.65625 -30.117188 83.601562 -24.640625 81.5 -19.890625 C 79.40625 -15.140625 76.554688 -11.132812 72.953125 -7.875 C 69.347656 -4.625 65.21875 -2.148438 60.5625 -0.453125 C 55.914062 1.242188 51.039062 2.09375 45.9375 2.09375 C 40.832031 2.09375 35.953125 1.242188 31.296875 -0.453125 C 26.640625 -2.148438 22.507812 -4.625 18.90625 -7.875 C 15.3125 -11.132812 12.460938 -15.140625 10.359375 -19.890625 C 8.253906 -24.640625 7.203125 -30.117188 7.203125 -36.328125 L 7.203125 -38.125 C 7.203125 -44.226562 8.253906 -49.65625 10.359375 -54.40625 C 12.460938 -59.164062 15.3125 -63.195312 18.90625 -66.5 C 22.507812 -69.800781 26.640625 -72.300781 31.296875 -74 C 35.953125 -75.707031 40.832031 -76.5625 45.9375 -76.5625 C 51.039062 -76.5625 55.914062 -75.707031 60.5625 -74 C 65.21875 -72.300781 69.347656 -69.800781 72.953125 -66.5 C 76.554688 -63.195312 79.40625 -59.164062 81.5 -54.40625 C 83.601562 -49.65625 84.65625 -44.226562 84.65625 -38.125 Z M 45.9375 -15.90625 C 48.632812 -15.90625 51.179688 -16.351562 53.578125 -17.25 C 55.984375 -18.15625 58.085938 -19.457031 59.890625 -21.15625 C 61.691406 -22.863281 63.117188 -24.941406 64.171875 -27.390625 C 65.222656 -29.847656 65.75 -32.625 65.75 -35.71875 L 65.75 -38.734375 C 65.75 -41.828125 65.222656 -44.597656 64.171875 -47.046875 C 63.117188 -49.503906 61.691406 -51.582031 59.890625 -53.28125 C 58.085938 -54.988281 55.984375 -56.289062 53.578125 -57.1875 C 51.179688 -58.09375 48.632812 -58.546875 45.9375 -58.546875 C 43.226562 -58.546875 40.671875 -58.09375 38.265625 -57.1875 C 35.867188 -56.289062 33.769531 -54.988281 31.96875 -53.28125 C 30.164062 -51.582031 28.738281 -49.503906 27.6875 -47.046875 C 26.644531 -44.597656 26.125 -41.828125 26.125 -38.734375 L 26.125 -35.71875 C 26.125 -32.625 26.644531 -29.847656 27.6875 -27.390625 C 28.738281 -24.941406 30.164062 -22.863281 31.96875 -21.15625 C 33.769531 -19.457031 35.867188 -18.15625 38.265625 -17.25 C 40.671875 -16.351562 43.226562 -15.90625 45.9375 -15.90625 Z M 45.9375 -15.90625 "/></g></g></g></svg>