<svg xmlns="http://www.w3.org/2000/svg" xmlns:xlink="http://www.w3.org/1999/xlink" width="1500" zoomAndPan="magnify" viewBox="0 0 1125 225" height="300" preserveAspectRatio="xMidYMid meet" version="1.0"><defs><g/><clipPath id="1b45337d5f"><path d="M 18 57 L 161 57 L 161 183 L 18 183 Z M 18 57 " clip-rule="nonzero"/></clipPath><clipPath id="ed4a61d539"><path d="M -22.429688 118.417969 L 126.328125 20.753906 L 193.789062 123.503906 L 45.03125 221.171875 Z M -22.429688 118.417969 " clip-rule="nonzero"/></clipPath><clipPath id="e163b71420"><path d="M -22.429688 118.417969 L 126.328125 20.753906 L 193.789062 123.503906 L 45.03125 221.171875 Z M -22.429688 118.417969 " clip-rule="nonzero"/></clipPath><clipPath id="e65e773a51"><path d="M 34 79 L 68 79 L 68 140 L 34 140 Z M 34 79 " clip-rule="nonzero"/></clipPath><clipPath id="d40c0f1c05"><path d="M -22.429688 118.417969 L 126.328125 20.753906 L 193.789062 123.503906 L 45.03125 221.171875 Z M -22.429688 118.417969 " clip-rule="nonzero"/></clipPath><clipPath id="67e9e5d8a7"><path d="M -22.429688 118.417969 L 126.328125 20.753906 L 193.789062 123.503906 L 45.03125 221.171875 Z M -22.429688 118.417969 " clip-rule="nonzero"/></clipPath><clipPath id="3d4152d384"><path d="M 21 63 L 55 63 L 55 124 L 21 124 Z M 21 63 " clip-rule="nonzero"/></clipPath><clipPath id="f9ab428ca5"><path d="M -35.519531 99.800781 L 113.71875 2.867188 L 178.675781 102.871094 L 29.4375 199.804688 Z M -35.519531 99.800781 " clip-rule="nonzero"/></clipPath><clipPath id="ea3a3525c5"><path d="M -35.519531 99.800781 L 113.71875 2.867188 L 178.675781 102.871094 L 29.4375 199.804688 Z M -35.519531 99.800781 " clip-rule="nonzero"/></clipPath><clipPath id="e322a0f295"><path d="M 2 39 L 150 39 L 150 169 L 2 169 Z M 2 39 " clip-rule="nonzero"/></clipPath><clipPath id="0ef9c6606d"><path d="M -35.519531 99.800781 L 113.71875 2.867188 L 178.675781 102.871094 L 29.4375 199.804688 Z M -35.519531 99.800781 " clip-rule="nonzero"/></clipPath><clipPath id="60462f4c6f"><path d="M -35.519531 99.800781 L 113.71875 2.867188 L 178.675781 102.871094 L 29.4375 199.804688 Z M -35.519531 99.800781 " clip-rule="nonzero"/></clipPath><clipPath id="db4e000ab1"><path d="M 23 65 L 57 65 L 57 125 L 23 125 Z M 23 65 " clip-rule="nonzero"/></clipPath><clipPath id="cd1d09077b"><path d="M -33.683594 101.636719 L 115.550781 4.703125 L 180.507812 104.703125 L 31.273438 201.640625 Z M -33.683594 101.636719 " clip-rule="nonzero"/></clipPath><clipPath id="65600bfb88"><path d="M -33.683594 101.636719 L 115.550781 4.703125 L 180.507812 104.703125 L 31.273438 201.640625 Z M -33.683594 101.636719 " clip-rule="nonzero"/></clipPath><clipPath id="9ebf0bb2c3"><path d="M 4 40 L 152 40 L 152 171 L 4 171 Z M 4 40 " clip-rule="nonzero"/></clipPath><clipPath id="026bfd6957"><path d="M -33.683594 101.636719 L 115.550781 4.703125 L 180.507812 104.703125 L 31.273438 201.640625 Z M -33.683594 101.636719 " clip-rule="nonzero"/></clipPath><clipPath id="eb9ef2111e"><path d="M -33.683594 101.636719 L 115.550781 4.703125 L 180.507812 104.703125 L 31.273438 201.640625 Z M -33.683594 101.636719 " clip-rule="nonzero"/></clipPath></defs><g clip-path="url(#1b45337d5f)"><g clip-path="url(#ed4a61d539)"><g clip-path="url(#e163b71420)"><path fill="#abe84e" d="M 47.578125 177.585938 C 54.613281 177.621094 63.515625 181.472656 76.042969 177.578125 C 88.570312 173.683594 122.203125 171.28125 141.71875 137.714844 C 159.328125 107.433594 144.472656 95.449219 156.171875 89.40625 C 167.277344 83.667969 152.8125 59.820312 141.144531 66.511719 C 135.164062 69.941406 126.792969 64.816406 113.523438 59.707031 C 98.144531 53.789062 68.269531 58.855469 48.8125 73.101562 C 29.363281 87.351562 17.816406 123.871094 23.171875 141.972656 C 27.511719 156.636719 23.027344 162.21875 19.71875 164.300781 C 15.347656 167.058594 21.800781 185.605469 33.539062 181.75 C 38.539062 180.109375 39.304688 177.546875 47.578125 177.585938 Z M 47.578125 177.585938 " fill-opacity="1" fill-rule="nonzero"/></g></g></g><g clip-path="url(#e65e773a51)"><g clip-path="url(#d40c0f1c05)"><g clip-path="url(#67e9e5d8a7)"><path fill="#ffffff" d="M 39.058594 138.792969 C 38.648438 139.0625 38.160156 139.226562 37.632812 139.242188 C 36.109375 139.292969 34.839844 138.09375 34.792969 136.570312 C 34.046875 112.007812 43.699219 92.890625 63.488281 79.757812 C 64.746094 78.902344 66.46875 79.257812 67.3125 80.527344 C 68.152344 81.800781 67.808594 83.511719 66.539062 84.351562 C 57.472656 90.371094 50.675781 97.78125 46.339844 106.378906 C 41.992188 114.996094 39.964844 125.097656 40.304688 136.402344 C 40.335938 137.394531 39.835938 138.285156 39.058594 138.792969 Z M 39.058594 138.792969 " fill-opacity="1" fill-rule="nonzero"/></g></g></g><g clip-path="url(#3d4152d384)"><g clip-path="url(#f9ab428ca5)"><g clip-path="url(#ea3a3525c5)"><path fill="#141414" d="M 50.703125 63.96875 C 30.929688 76.960938 21.21875 95.957031 21.84375 120.429688 C 21.882812 121.949219 23.144531 123.144531 24.65625 123.105469 C 25.183594 123.089844 25.671875 122.933594 26.082031 122.664062 C 26.859375 122.160156 27.359375 121.277344 27.335938 120.285156 C 27.050781 109.019531 29.121094 98.964844 33.492188 90.402344 C 37.855469 81.859375 44.660156 74.511719 53.722656 68.558594 C 54.992188 67.726562 55.34375 66.023438 54.511719 64.753906 C 53.675781 63.492188 51.960938 63.128906 50.703125 63.96875 Z M 50.703125 63.96875 " fill-opacity="1" fill-rule="nonzero"/></g></g></g><g clip-path="url(#e322a0f295)"><g clip-path="url(#0ef9c6606d)"><g clip-path="url(#60462f4c6f)"><path fill="#141414" d="M 139.367188 49.363281 C 135.121094 46.785156 130.648438 46.574219 126.769531 48.773438 C 123.261719 50.761719 117.519531 48.328125 109.574219 44.957031 C 107.207031 43.949219 104.515625 42.8125 101.644531 41.6875 C 93.679688 38.574219 81.9375 38.160156 69.425781 40.539062 C 56.40625 43.011719 44.003906 48.167969 34.503906 55.050781 C 25.082031 61.878906 16.636719 74.289062 11.328125 89.101562 C 6.277344 103.195312 4.886719 117.183594 7.597656 126.519531 C 10.375 136.074219 9.570312 142.835938 5.34375 145.578125 C 5.308594 145.605469 5.269531 145.628906 5.234375 145.652344 C 5.210938 145.667969 5.183594 145.683594 5.15625 145.703125 C 1.46875 148.097656 2.167969 154.304688 4.390625 159.089844 C 7.925781 166.691406 14.53125 170.207031 21.21875 168.046875 C 23.066406 167.453125 24.40625 166.746094 25.585938 166.117188 C 27.761719 164.964844 29.484375 164.054688 34.351562 164.101562 C 36.238281 164.121094 38.332031 164.453125 40.757812 164.839844 C 46.726562 165.792969 54.15625 166.976562 63.535156 164.113281 C 65.390625 163.546875 67.804688 163 70.597656 162.367188 C 78.394531 160.605469 89.078125 158.191406 99.988281 152.582031 C 102.347656 151.367188 104.621094 150.050781 106.808594 148.628906 C 116.613281 142.261719 124.636719 133.828125 130.71875 123.484375 C 140.902344 106.175781 140.75 94.4375 140.648438 86.671875 C 140.570312 80.363281 140.710938 78.28125 144.238281 76.484375 C 147.625 74.75 149.570312 71.566406 149.722656 67.507812 C 149.964844 61.011719 145.417969 53.035156 139.367188 49.363281 Z M 144.234375 67.3125 C 144.15625 69.378906 143.339844 70.777344 141.738281 71.597656 C 135.003906 75.03125 135.074219 80.464844 135.15625 86.753906 C 135.253906 94.335938 135.386719 104.71875 125.984375 120.710938 C 119.695312 131.398438 111.933594 138.769531 103.902344 143.984375 C 91.566406 151.996094 78.59375 154.933594 69.386719 157.015625 C 66.488281 157.671875 63.980469 158.238281 61.933594 158.863281 C 53.769531 161.355469 47.316406 160.328125 41.621094 159.421875 C 39.089844 159.015625 36.699219 158.636719 34.402344 158.613281 C 28.144531 158.554688 25.535156 159.933594 23.015625 161.265625 C 21.9375 161.835938 20.917969 162.375 19.53125 162.824219 C 15.484375 164.128906 12.632812 161.707031 10.953125 159.441406 C 8.136719 155.644531 7.699219 151.234375 8.25 150.257812 C 10.1875 149.011719 12.691406 146.667969 13.941406 142.355469 C 15.261719 137.796875 14.90625 131.960938 12.882812 124.996094 C 10.515625 116.851562 11.90625 103.8125 16.507812 90.960938 C 21.453125 77.167969 29.1875 65.699219 37.734375 59.503906 C 57.214844 45.386719 86.003906 41.480469 99.652344 46.8125 C 102.453125 47.90625 104.984375 48.980469 107.4375 50.019531 C 116.832031 54.007812 123.617188 56.886719 129.488281 53.554688 C 131.613281 52.351562 133.980469 52.523438 136.519531 54.0625 C 140.867188 56.703125 144.402344 62.773438 144.234375 67.3125 Z M 144.234375 67.3125 " fill-opacity="1" fill-rule="nonzero"/></g></g></g><g clip-path="url(#db4e000ab1)"><g clip-path="url(#cd1d09077b)"><g clip-path="url(#65600bfb88)"><path fill="#141414" d="M 52.539062 65.804688 C 32.761719 78.792969 23.054688 97.789062 23.675781 122.265625 C 23.714844 123.78125 24.976562 124.980469 26.492188 124.941406 C 27.019531 124.925781 27.503906 124.765625 27.917969 124.5 C 28.691406 123.996094 29.195312 123.113281 29.171875 122.121094 C 28.882812 110.851562 30.957031 100.800781 35.328125 92.238281 C 39.691406 83.695312 46.496094 76.347656 55.558594 70.394531 C 56.828125 69.5625 57.179688 67.859375 56.347656 66.589844 C 55.507812 65.328125 53.792969 64.960938 52.539062 65.804688 Z M 52.539062 65.804688 " fill-opacity="1" fill-rule="nonzero"/></g></g></g><g clip-path="url(#9ebf0bb2c3)"><g clip-path="url(#026bfd6957)"><g clip-path="url(#eb9ef2111e)"><path fill="#141414" d="M 141.203125 51.199219 C 136.957031 48.621094 132.484375 48.40625 128.605469 50.605469 C 125.097656 52.59375 119.355469 50.164062 111.410156 46.792969 C 109.039062 45.785156 106.351562 44.648438 103.480469 43.523438 C 95.515625 40.410156 83.769531 39.992188 71.261719 42.371094 C 58.238281 44.847656 45.839844 50 36.339844 56.886719 C 26.917969 63.714844 18.472656 76.125 13.164062 90.9375 C 8.113281 105.03125 6.71875 119.015625 9.429688 128.355469 C 12.207031 137.910156 11.40625 144.667969 7.179688 147.414062 C 7.140625 147.4375 7.105469 147.460938 7.070312 147.484375 C 7.042969 147.503906 7.019531 147.519531 6.992188 147.535156 C 3.304688 149.929688 4.003906 156.136719 6.226562 160.921875 C 9.757812 168.523438 16.363281 172.042969 23.054688 169.882812 C 24.898438 169.285156 26.238281 168.578125 27.421875 167.953125 C 29.597656 166.800781 31.320312 165.890625 36.183594 165.9375 C 38.074219 165.957031 40.164062 166.289062 42.589844 166.675781 C 48.5625 167.625 55.992188 168.8125 65.371094 165.949219 C 67.226562 165.382812 69.636719 164.835938 72.433594 164.203125 C 80.230469 162.441406 90.910156 160.023438 101.820312 154.417969 C 104.183594 153.203125 106.457031 151.886719 108.644531 150.464844 C 118.449219 144.09375 126.472656 135.664062 132.554688 125.320312 C 142.734375 108.007812 142.585938 96.273438 142.484375 88.507812 C 142.402344 82.199219 142.546875 80.117188 146.070312 78.316406 C 149.460938 76.585938 151.40625 73.402344 151.554688 69.34375 C 151.800781 62.84375 147.25 54.871094 141.203125 51.199219 Z M 146.066406 69.148438 C 145.992188 71.214844 145.175781 72.613281 143.574219 73.429688 C 136.839844 76.867188 136.90625 82.300781 136.988281 88.585938 C 137.089844 96.167969 137.222656 106.550781 127.816406 122.542969 C 121.53125 133.234375 113.769531 140.601562 105.738281 145.820312 C 93.402344 153.832031 80.429688 156.769531 71.222656 158.851562 C 68.320312 159.503906 65.816406 160.074219 63.765625 160.699219 C 55.605469 163.191406 49.152344 162.164062 43.457031 161.253906 C 40.925781 160.851562 38.53125 160.472656 36.234375 160.449219 C 29.980469 160.386719 27.367188 161.769531 24.847656 163.101562 C 23.773438 163.671875 22.753906 164.207031 21.367188 164.660156 C 17.320312 165.964844 14.46875 163.539062 12.785156 161.273438 C 9.96875 157.480469 9.535156 153.070312 10.085938 152.089844 C 12.023438 150.847656 14.527344 148.503906 15.777344 144.191406 C 17.097656 139.632812 16.738281 133.792969 14.714844 126.832031 C 12.347656 118.6875 13.738281 105.648438 18.34375 92.796875 C 23.289062 79 31.023438 67.535156 39.570312 61.339844 C 59.050781 47.21875 87.835938 43.316406 101.488281 48.648438 C 104.285156 49.742188 106.820312 50.816406 109.273438 51.855469 C 118.667969 55.839844 125.453125 58.71875 131.324219 55.390625 C 133.449219 54.1875 135.816406 54.355469 138.355469 55.898438 C 142.703125 58.539062 146.234375 64.609375 146.066406 69.148438 Z M 146.066406 69.148438 " fill-opacity="1" fill-rule="nonzero"/></g></g></g><g fill="#141414" fill-opacity="1"><g transform="translate(144.642035, 180.900975)"><g><path d="M 14.453125 -23.125 L 47.984375 -23.125 L 47.984375 -111.765625 L 15.609375 -111.765625 L 15.609375 -134.875 L 72.265625 -134.875 L 72.265625 -23.125 L 103.46875 -23.125 L 103.46875 0 L 14.453125 0 Z M 14.453125 -23.125 "/></g></g></g><g fill="#141414" fill-opacity="1"><g transform="translate(252.929444, 180.900975)"><g><path d="M 16.765625 -23.125 L 49.140625 -23.125 L 49.140625 -72.453125 L 19.078125 -72.453125 L 19.078125 -95.578125 L 73.40625 -95.578125 L 73.40625 -23.125 L 101.15625 -23.125 L 101.15625 0 L 16.765625 0 Z M 79.390625 -123.890625 C 79.390625 -121.328125 78.90625 -118.921875 77.9375 -116.671875 C 76.976562 -114.421875 75.660156 -112.492188 73.984375 -110.890625 C 72.316406 -109.285156 70.359375 -108 68.109375 -107.03125 C 65.867188 -106.070312 63.523438 -105.59375 61.078125 -105.59375 C 58.515625 -105.59375 56.140625 -106.070312 53.953125 -107.03125 C 51.765625 -108 49.835938 -109.285156 48.171875 -110.890625 C 46.503906 -112.492188 45.1875 -114.421875 44.21875 -116.671875 C 43.257812 -118.921875 42.78125 -121.328125 42.78125 -123.890625 C 42.78125 -126.460938 43.257812 -128.875 44.21875 -131.125 C 45.1875 -133.375 46.503906 -135.300781 48.171875 -136.90625 C 49.835938 -138.507812 51.765625 -139.789062 53.953125 -140.75 C 56.140625 -141.71875 58.515625 -142.203125 61.078125 -142.203125 C 63.523438 -142.203125 65.867188 -141.71875 68.109375 -140.75 C 70.359375 -139.789062 72.316406 -138.507812 73.984375 -136.90625 C 75.660156 -135.300781 76.976562 -133.375 77.9375 -131.125 C 78.90625 -128.875 79.390625 -126.460938 79.390625 -123.890625 Z M 79.390625 -123.890625 "/></g></g></g><g fill="#141414" fill-opacity="1"><g transform="translate(361.216853, 180.900975)"><g><path d="M 110.984375 0 L 86.703125 0 L 86.703125 -67.0625 C 86.703125 -69.757812 86.023438 -71.78125 84.671875 -73.125 C 83.328125 -74.46875 81.566406 -75.140625 79.390625 -75.140625 C 76.816406 -75.140625 74.789062 -74.367188 73.3125 -72.828125 C 71.84375 -71.296875 71.109375 -68.988281 71.109375 -65.90625 L 71.109375 0 L 46.828125 0 L 46.828125 -67.0625 C 46.828125 -69.757812 46.085938 -71.78125 44.609375 -73.125 C 43.128906 -74.46875 41.363281 -75.140625 39.3125 -75.140625 C 37 -75.140625 35.070312 -74.367188 33.53125 -72.828125 C 31.988281 -71.296875 31.21875 -68.988281 31.21875 -65.90625 L 31.21875 0 L 6.9375 0 L 6.9375 -95.578125 L 31.21875 -95.578125 L 31.21875 -86.328125 L 34.6875 -86.328125 C 35.457031 -89.796875 37.222656 -92.648438 39.984375 -94.890625 C 42.742188 -97.140625 46.375 -98.265625 50.875 -98.265625 C 55.113281 -98.265625 58.707031 -97.140625 61.65625 -94.890625 C 64.613281 -92.648438 66.609375 -89.796875 67.640625 -86.328125 L 71.109375 -86.328125 C 72.128906 -89.796875 74.273438 -92.648438 77.546875 -94.890625 C 80.828125 -97.140625 84.910156 -98.265625 89.796875 -98.265625 C 96.210938 -98.265625 101.347656 -96.113281 105.203125 -91.8125 C 109.054688 -87.507812 110.984375 -81.566406 110.984375 -73.984375 Z M 110.984375 0 "/></g></g></g><g fill="#141414" fill-opacity="1"><g transform="translate(469.504262, 180.900975)"><g><path d="M 36.421875 -39.890625 C 36.546875 -37.054688 37.21875 -34.453125 38.4375 -32.078125 C 39.65625 -29.703125 41.320312 -27.644531 43.4375 -25.90625 C 45.5625 -24.175781 48.003906 -22.828125 50.765625 -21.859375 C 53.535156 -20.898438 56.460938 -20.421875 59.546875 -20.421875 C 65.578125 -20.421875 70.195312 -21.476562 73.40625 -23.59375 C 76.625 -25.71875 78.9375 -28.257812 80.34375 -31.21875 L 101.15625 -19.65625 C 100 -17.21875 98.394531 -14.679688 96.34375 -12.046875 C 94.289062 -9.410156 91.625 -7 88.34375 -4.8125 C 85.070312 -2.632812 81.09375 -0.835938 76.40625 0.578125 C 71.71875 1.992188 66.222656 2.703125 59.921875 2.703125 C 52.734375 2.703125 46.179688 1.546875 40.265625 -0.765625 C 34.359375 -3.078125 29.253906 -6.414062 24.953125 -10.78125 C 20.648438 -15.15625 17.3125 -20.488281 14.9375 -26.78125 C 12.5625 -33.070312 11.375 -40.203125 11.375 -48.171875 L 11.375 -49.328125 C 11.375 -56.648438 12.625 -63.328125 15.125 -69.359375 C 17.632812 -75.398438 21.070312 -80.539062 25.4375 -84.78125 C 29.800781 -89.019531 34.90625 -92.328125 40.75 -94.703125 C 46.59375 -97.078125 52.859375 -98.265625 59.546875 -98.265625 C 67.765625 -98.265625 74.828125 -96.816406 80.734375 -93.921875 C 86.640625 -91.035156 91.519531 -87.375 95.375 -82.9375 C 99.226562 -78.507812 102.054688 -73.628906 103.859375 -68.296875 C 105.660156 -62.972656 106.5625 -57.804688 106.5625 -52.796875 L 106.5625 -39.890625 Z M 59.34375 -76.296875 C 53.175781 -76.296875 48.164062 -74.722656 44.3125 -71.578125 C 40.457031 -68.429688 37.953125 -64.804688 36.796875 -60.703125 L 81.890625 -60.703125 C 81.117188 -65.191406 78.707031 -68.910156 74.65625 -71.859375 C 70.613281 -74.816406 65.507812 -76.296875 59.34375 -76.296875 Z M 59.34375 -76.296875 "/></g></g></g><g fill="#141414" fill-opacity="1"><g transform="translate(577.79167, 180.900975)"><g><path d="M 14.265625 -95.578125 L 41.421875 -95.578125 L 41.421875 -115.234375 C 41.421875 -120.753906 43.285156 -125.40625 47.015625 -129.1875 C 50.742188 -132.976562 55.367188 -134.875 60.890625 -134.875 L 99.8125 -134.875 L 99.8125 -111.765625 L 70.90625 -111.765625 C 67.4375 -111.765625 65.703125 -109.835938 65.703125 -105.984375 L 65.703125 -95.578125 L 103.28125 -95.578125 L 103.28125 -72.453125 L 65.703125 -72.453125 L 65.703125 0 L 41.421875 0 L 41.421875 -72.453125 L 14.265625 -72.453125 Z M 14.265625 -95.578125 "/></g></g></g><g fill="#141414" fill-opacity="1"><g transform="translate(686.079079, 180.900975)"><g><path d="M 108.671875 -46.625 C 108.671875 -38.664062 107.320312 -31.632812 104.625 -25.53125 C 101.925781 -19.425781 98.265625 -14.285156 93.640625 -10.109375 C 89.015625 -5.941406 83.71875 -2.765625 77.75 -0.578125 C 71.78125 1.609375 65.519531 2.703125 58.96875 2.703125 C 52.414062 2.703125 46.148438 1.609375 40.171875 -0.578125 C 34.203125 -2.765625 28.90625 -5.941406 24.28125 -10.109375 C 19.65625 -14.285156 15.992188 -19.425781 13.296875 -25.53125 C 10.597656 -31.632812 9.25 -38.664062 9.25 -46.625 L 9.25 -48.9375 C 9.25 -56.78125 10.597656 -63.75 13.296875 -69.84375 C 15.992188 -75.945312 19.65625 -81.117188 24.28125 -85.359375 C 28.90625 -89.597656 34.203125 -92.804688 40.171875 -94.984375 C 46.148438 -97.171875 52.414062 -98.265625 58.96875 -98.265625 C 65.519531 -98.265625 71.78125 -97.171875 77.75 -94.984375 C 83.71875 -92.804688 89.015625 -89.597656 93.640625 -85.359375 C 98.265625 -81.117188 101.925781 -75.945312 104.625 -69.84375 C 107.320312 -63.75 108.671875 -56.78125 108.671875 -48.9375 Z M 58.96875 -20.421875 C 62.4375 -20.421875 65.707031 -21 68.78125 -22.15625 C 71.863281 -23.3125 74.5625 -24.976562 76.875 -27.15625 C 79.1875 -29.34375 81.015625 -32.007812 82.359375 -35.15625 C 83.710938 -38.3125 84.390625 -41.878906 84.390625 -45.859375 L 84.390625 -49.71875 C 84.390625 -53.695312 83.710938 -57.257812 82.359375 -60.40625 C 81.015625 -63.550781 79.1875 -66.21875 76.875 -68.40625 C 74.5625 -70.59375 71.863281 -72.257812 68.78125 -73.40625 C 65.707031 -74.5625 62.4375 -75.140625 58.96875 -75.140625 C 55.5 -75.140625 52.222656 -74.5625 49.140625 -73.40625 C 46.054688 -72.257812 43.359375 -70.59375 41.046875 -68.40625 C 38.734375 -66.21875 36.898438 -63.550781 35.546875 -60.40625 C 34.203125 -57.257812 33.53125 -53.695312 33.53125 -49.71875 L 33.53125 -45.859375 C 33.53125 -41.878906 34.203125 -38.3125 35.546875 -35.15625 C 36.898438 -32.007812 38.734375 -29.34375 41.046875 -27.15625 C 43.359375 -24.976562 46.054688 -23.3125 49.140625 -22.15625 C 52.222656 -21 55.5 -20.421875 58.96875 -20.421875 Z M 58.96875 -20.421875 "/></g></g></g><g fill="#141414" fill-opacity="1"><g transform="translate(794.366488, 180.900975)"><g><path d="M 14.453125 -23.125 L 47.984375 -23.125 L 47.984375 -111.765625 L 15.609375 -111.765625 L 15.609375 -134.875 L 72.265625 -134.875 L 72.265625 -23.125 L 103.46875 -23.125 L 103.46875 0 L 14.453125 0 Z M 14.453125 -23.125 "/></g></g></g><g fill="#141414" fill-opacity="1"><g transform="translate(902.653938, 180.900975)"><g><path d="M 16.765625 -23.125 L 49.140625 -23.125 L 49.140625 -72.453125 L 19.078125 -72.453125 L 19.078125 -95.578125 L 73.40625 -95.578125 L 73.40625 -23.125 L 101.15625 -23.125 L 101.15625 0 L 16.765625 0 Z M 79.390625 -123.890625 C 79.390625 -121.328125 78.90625 -118.921875 77.9375 -116.671875 C 76.976562 -114.421875 75.660156 -112.492188 73.984375 -110.890625 C 72.316406 -109.285156 70.359375 -108 68.109375 -107.03125 C 65.867188 -106.070312 63.523438 -105.59375 61.078125 -105.59375 C 58.515625 -105.59375 56.140625 -106.070312 53.953125 -107.03125 C 51.765625 -108 49.835938 -109.285156 48.171875 -110.890625 C 46.503906 -112.492188 45.1875 -114.421875 44.21875 -116.671875 C 43.257812 -118.921875 42.78125 -121.328125 42.78125 -123.890625 C 42.78125 -126.460938 43.257812 -128.875 44.21875 -131.125 C 45.1875 -133.375 46.503906 -135.300781 48.171875 -136.90625 C 49.835938 -138.507812 51.765625 -139.789062 53.953125 -140.75 C 56.140625 -141.71875 58.515625 -142.203125 61.078125 -142.203125 C 63.523438 -142.203125 65.867188 -141.71875 68.109375 -140.75 C 70.359375 -139.789062 72.316406 -138.507812 73.984375 -136.90625 C 75.660156 -135.300781 76.976562 -133.375 77.9375 -131.125 C 78.90625 -128.875 79.390625 -126.460938 79.390625 -123.890625 Z M 79.390625 -123.890625 "/></g></g></g><g fill="#141414" fill-opacity="1"><g transform="translate(1010.941309, 180.900975)"><g><path d="M 108.671875 -46.625 C 108.671875 -38.664062 107.320312 -31.632812 104.625 -25.53125 C 101.925781 -19.425781 98.265625 -14.285156 93.640625 -10.109375 C 89.015625 -5.941406 83.71875 -2.765625 77.75 -0.578125 C 71.78125 1.609375 65.519531 2.703125 58.96875 2.703125 C 52.414062 2.703125 46.148438 1.609375 40.171875 -0.578125 C 34.203125 -2.765625 28.90625 -5.941406 24.28125 -10.109375 C 19.65625 -14.285156 15.992188 -19.425781 13.296875 -25.53125 C 10.597656 -31.632812 9.25 -38.664062 9.25 -46.625 L 9.25 -48.9375 C 9.25 -56.78125 10.597656 -63.75 13.296875 -69.84375 C 15.992188 -75.945312 19.65625 -81.117188 24.28125 -85.359375 C 28.90625 -89.597656 34.203125 -92.804688 40.171875 -94.984375 C 46.148438 -97.171875 52.414062 -98.265625 58.96875 -98.265625 C 65.519531 -98.265625 71.78125 -97.171875 77.75 -94.984375 C 83.71875 -92.804688 89.015625 -89.597656 93.640625 -85.359375 C 98.265625 -81.117188 101.925781 -75.945312 104.625 -69.84375 C 107.320312 -63.75 108.671875 -56.78125 108.671875 -48.9375 Z M 58.96875 -20.421875 C 62.4375 -20.421875 65.707031 -21 68.78125 -22.15625 C 71.863281 -23.3125 74.5625 -24.976562 76.875 -27.15625 C 79.1875 -29.34375 81.015625 -32.007812 82.359375 -35.15625 C 83.710938 -38.3125 84.390625 -41.878906 84.390625 -45.859375 L 84.390625 -49.71875 C 84.390625 -53.695312 83.710938 -57.257812 82.359375 -60.40625 C 81.015625 -63.550781 79.1875 -66.21875 76.875 -68.40625 C 74.5625 -70.59375 71.863281 -72.257812 68.78125 -73.40625 C 65.707031 -74.5625 62.4375 -75.140625 58.96875 -75.140625 C 55.5 -75.140625 52.222656 -74.5625 49.140625 -73.40625 C 46.054688 -72.257812 43.359375 -70.59375 41.046875 -68.40625 C 38.734375 -66.21875 36.898438 -63.550781 35.546875 -60.40625 C 34.203125 -57.257812 33.53125 -53.695312 33.53125 -49.71875 L 33.53125 -45.859375 C 33.53125 -41.878906 34.203125 -38.3125 35.546875 -35.15625 C 36.898438 -32.007812 38.734375 -29.34375 41.046875 -27.15625 C 43.359375 -24.976562 46.054688 -23.3125 49.140625 -22.15625 C 52.222656 -21 55.5 -20.421875 58.96875 -20.421875 Z M 58.96875 -20.421875 "/></g></g></g></svg>